<svg data-logo="logo" xmlns="http://www.w3.org/2000/svg" viewBox="0 0 257 43">
            <g style="opacity: 1;" id="logogram" transform="translate(0, 1) rotate(0)"><path d="M37.4552 2.39882C38.3804 1.43634 39.6368 0.89563 40.9453 0.89563C46.8318 0.89563 52.3794 0.895633 57.8425 0.895644C68.8303 0.895667 74.3325 14.7158 66.5629 22.7986L49.639 40.4046C48.862 41.2129 47.5335 40.6405 47.5335 39.4974V23.9906L49.4894 21.9559C51.0433 20.3393 49.9427 17.5753 47.7452 17.5753H22.8667L37.4552 2.39882Z" fill="#000000"></path><path d="M32.945 39.1672C32.0198 40.1296 30.7634 40.6703 29.455 40.6703C23.5684 40.6703 18.0208 40.6703 12.5577 40.6703C1.56991 40.6703 -3.93229 26.8501 3.83728 18.7674L20.7612 1.16133C21.5382 0.353051 22.8667 0.925506 22.8667 2.06858L22.8667 17.5753L20.9109 19.6101C19.3569 21.2266 20.4575 23.9907 22.6551 23.9907L47.5335 23.9906L32.945 39.1672Z" fill="#000000"></path></g>
            <g style="opacity: 1;" id="logotype" transform="translate(77, 7)"><path fill="#000000" d="M31.13 21.49L31.13 21.49Q31.13 23.80 29.73 25.38Q28.33 26.95 25.74 27.75Q23.15 28.56 19.51 28.56L19.51 28.56Q15.77 28.56 12.95 27.65Q10.13 26.74 8.55 25.09Q6.98 23.45 6.88 21.28L6.88 21.28L14.12 21.28Q14.37 22.09 15.08 22.66Q15.80 23.24 16.99 23.54Q18.18 23.84 19.83 23.84L19.83 23.84Q21.96 23.84 23.06 23.41Q24.17 22.99 24.17 22.16L24.17 22.16Q24.17 21.49 23.33 21.16Q22.49 20.82 20.46 20.65L20.46 20.65L16.92 20.37Q13.39 20.13 11.30 19.30Q9.22 18.48 8.31 17.17Q7.40 15.85 7.40 14.17L7.40 14.17Q7.40 11.90 8.82 10.41Q10.23 8.92 12.77 8.17Q15.31 7.42 18.71 7.42L18.71 7.42Q22.07 7.42 24.69 8.29Q27.32 9.17 28.89 10.73Q30.47 12.28 30.71 14.38L30.71 14.38L23.47 14.38Q23.29 13.72 22.70 13.18Q22.10 12.63 21.05 12.28Q20 11.93 18.36 11.93L18.36 11.93Q16.43 11.93 15.43 12.35Q14.44 12.77 14.44 13.54L14.44 13.54Q14.44 14.14 15.05 14.49Q15.66 14.84 17.34 14.98L17.34 14.98L22.00 15.33Q25.46 15.54 27.46 16.33Q29.45 17.11 30.29 18.41Q31.13 19.70 31.13 21.49ZM45.87 28.56L45.87 28.56Q42.23 28.56 39.37 27.23Q36.52 25.90 34.88 23.50Q33.23 21.11 33.23 17.92L33.23 17.92Q33.23 14.80 34.81 12.44Q36.38 10.08 39.13 8.75Q41.88 7.42 45.34 7.42L45.34 7.42Q48.95 7.42 51.48 8.98Q54.02 10.53 55.40 13.37Q56.79 16.20 56.79 20.05L56.79 20.05L39.01 20.05L39.01 15.75L52.76 15.75L50.42 17.25Q50.28 15.71 49.65 14.65Q49.02 13.58 47.98 13.02Q46.95 12.46 45.52 12.46L45.52 12.46Q43.94 12.46 42.82 13.09Q41.70 13.72 41.07 14.82Q40.44 15.92 40.44 17.39L40.44 17.39Q40.44 19.28 41.30 20.60Q42.16 21.91 43.82 22.61Q45.48 23.31 47.90 23.31L47.90 23.31Q50.10 23.31 52.29 22.73Q54.48 22.16 56.26 21.11L56.26 21.11L56.26 25.66Q54.20 27.05 51.55 27.81Q48.91 28.56 45.87 28.56ZM59.83 28L59.83 1.05L67.01 1.05L67.01 28L59.83 28ZM70.92 28L70.92 1.05L78.10 1.05L78.10 28L70.92 28ZM96.23 5.81L96.23 5.81Q93.89 5.81 92.96 6.63Q92.03 7.45 92.03 9.27L92.03 9.27L92.03 28L84.89 28L84.89 9.63Q84.89 6.72 86.08 4.67Q87.27 2.62 89.60 1.56Q91.93 0.49 95.36 0.49L95.36 0.49Q96.90 0.49 98.10 0.70Q99.31 0.91 100.68 1.29L100.68 1.29L100.68 6.54Q99.63 6.16 98.52 5.98Q97.42 5.81 96.23 5.81ZM100.19 14.94L80.83 14.94L80.83 9.66L100.19 9.66L100.19 14.94ZM102.64 28L102.64 1.05L109.81 1.05L109.81 28L102.64 28ZM125.63 28.56L125.63 28.56Q121.78 28.56 118.91 27.25Q116.04 25.93 114.43 23.54Q112.82 21.14 112.82 18.02L112.82 18.02Q112.82 14.84 114.43 12.46Q116.04 10.08 118.91 8.75Q121.78 7.42 125.63 7.42L125.63 7.42Q129.45 7.42 132.33 8.75Q135.22 10.08 136.83 12.46Q138.44 14.84 138.44 18.02L138.44 18.02Q138.44 21.14 136.83 23.54Q135.22 25.93 132.33 27.25Q129.45 28.56 125.63 28.56ZM125.63 23.27L125.63 23.27Q127.38 23.27 128.62 22.64Q129.87 22.02 130.53 20.82Q131.20 19.63 131.20 18.02L131.20 18.02Q131.20 16.34 130.53 15.17Q129.87 14.00 128.62 13.37Q127.38 12.74 125.63 12.74L125.63 12.74Q123.88 12.74 122.62 13.37Q121.36 14.00 120.70 15.17Q120.03 16.34 120.03 17.99L120.03 17.99Q120.03 19.63 120.70 20.82Q121.36 22.02 122.62 22.64Q123.88 23.27 125.63 23.27ZM162.91 8.01L168.75 23.98L166.51 23.98L172.18 8.01L179.32 8.01L171.83 28L164.55 28L158.29 11.41L160.67 11.41L154.33 28L147.05 28L139.56 8.01L146.77 8.01L152.41 23.98L150.17 23.98L156.08 8.01L162.91 8.01Z"></path></g>
            
          </svg>